<svg width="462" height="141" viewBox="0 0 462 141" fill="none" xmlns="http://www.w3.org/2000/svg">
<path d="M29.2969 86.9375C33.4635 86.9375 37.2135 86.1562 40.5469 84.5938C43.8802 83.0312 46.6146 80.8438 48.75 78.0312C50.9115 75.1927 52.2786 71.8984 52.8516 68.1484L52.9297 67.7578H44.2188L44.1016 68.1484C43.4245 70.5182 42.3958 72.5234 41.0156 74.1641C39.6354 75.8047 37.9557 77.0547 35.9766 77.9141C34.0234 78.7474 31.7969 79.1641 29.2969 79.1641C25.8333 79.1641 22.8125 78.2917 20.2344 76.5469C17.6562 74.8021 15.6641 72.3281 14.2578 69.125C12.8516 65.8958 12.1484 62.1198 12.1484 57.7969V57.7578C12.1484 53.4089 12.8516 49.6458 14.2578 46.4688C15.6641 43.2917 17.6432 40.8307 20.1953 39.0859C22.7734 37.3411 25.8073 36.4688 29.2969 36.4688C31.849 36.4688 34.1016 36.8984 36.0547 37.7578C38.0339 38.5911 39.6875 39.8021 41.0156 41.3906C42.3698 42.9792 43.3464 44.8802 43.9453 47.0938L44.1797 47.875H52.8906L52.8516 47.4844C52.2786 43.7604 50.9115 40.4922 48.75 37.6797C46.5885 34.8672 43.8411 32.6667 40.5078 31.0781C37.1745 29.4896 33.4375 28.6953 29.2969 28.6953C23.9583 28.6953 19.3359 29.8802 15.4297 32.25C11.5234 34.5938 8.5026 37.9401 6.36719 42.2891C4.23177 46.638 3.16406 51.7943 3.16406 57.7578V57.7969C3.16406 63.7604 4.23177 68.9297 6.36719 73.3047C8.5026 77.6536 11.5234 81.013 15.4297 83.3828C19.362 85.7526 23.9844 86.9375 29.2969 86.9375ZM78.3781 86.8203C82.2844 86.8203 85.6958 85.9609 88.6125 84.2422C91.5292 82.4974 93.7948 80.0365 95.4094 76.8594C97.05 73.6823 97.8703 69.8802 97.8703 65.4531V65.375C97.8703 60.974 97.05 57.1849 95.4094 54.0078C93.7948 50.8307 91.5161 48.3958 88.5734 46.7031C85.6568 44.9844 82.2453 44.125 78.3391 44.125C74.4589 44.125 71.0474 44.9844 68.1047 46.7031C65.188 48.4219 62.9094 50.8698 61.2687 54.0469C59.6542 57.224 58.8469 61 58.8469 65.375V65.4531C58.8469 69.8542 59.6542 73.6562 61.2687 76.8594C62.8833 80.0365 65.149 82.4974 68.0656 84.2422C71.0083 85.9609 74.4458 86.8203 78.3781 86.8203ZM78.4172 79.7109C76.2036 79.7109 74.2766 79.151 72.6359 78.0312C70.9953 76.9115 69.7193 75.2969 68.8078 73.1875C67.9224 71.0521 67.4797 68.474 67.4797 65.4531V65.375C67.4797 62.3802 67.9354 59.8281 68.8469 57.7188C69.7583 55.6094 71.0214 53.9948 72.6359 52.875C74.2766 51.7552 76.1776 51.1953 78.3391 51.1953C80.5266 51.1953 82.4406 51.7552 84.0812 52.875C85.7219 53.9688 86.9849 55.5833 87.8703 57.7188C88.7557 59.8281 89.1984 62.3802 89.1984 65.375V65.4531C89.1984 68.474 88.7557 71.0521 87.8703 73.1875C86.9849 75.2969 85.7349 76.9115 84.1203 78.0312C82.5057 79.151 80.6047 79.7109 78.4172 79.7109ZM120.584 86.8203C123.527 86.8203 126.105 86.1302 128.319 84.75C130.532 83.3438 132.251 81.4427 133.475 79.0469H133.631V86H142.147V29.6328H133.631V51.8984H133.475C132.225 49.4766 130.467 47.5755 128.202 46.1953C125.962 44.8151 123.397 44.125 120.506 44.125C117.069 44.125 114.061 44.9974 111.483 46.7422C108.931 48.4609 106.939 50.9089 105.506 54.0859C104.1 57.263 103.397 61.0391 103.397 65.4141V65.4531C103.397 69.8281 104.1 73.6172 105.506 76.8203C106.912 79.9974 108.905 82.4583 111.483 84.2031C114.061 85.9479 117.095 86.8203 120.584 86.8203ZM122.811 79.5156C120.597 79.5156 118.683 78.9557 117.069 77.8359C115.454 76.7161 114.204 75.1016 113.319 72.9922C112.459 70.8568 112.03 68.3438 112.03 65.4531V65.4141C112.03 62.5234 112.459 60.0365 113.319 57.9531C114.204 55.8438 115.454 54.2292 117.069 53.1094C118.683 51.9635 120.597 51.3906 122.811 51.3906C124.946 51.3906 126.821 51.9766 128.436 53.1484C130.051 54.2943 131.327 55.9219 132.264 58.0312C133.202 60.1146 133.67 62.5755 133.67 65.4141V65.4531C133.67 68.2917 133.202 70.7656 132.264 72.875C131.353 74.9844 130.077 76.625 128.436 77.7969C126.821 78.9427 124.946 79.5156 122.811 79.5156ZM169.119 86.8203C171.619 86.8203 173.884 86.4818 175.916 85.8047C177.947 85.1276 179.705 84.2031 181.189 83.0312C182.699 81.8333 183.923 80.4922 184.861 79.0078C185.798 77.5234 186.436 75.974 186.775 74.3594L186.853 73.9297H178.806L178.689 74.2422C178.351 75.2839 177.752 76.2344 176.892 77.0938C176.059 77.9271 175.004 78.6042 173.728 79.125C172.452 79.6198 170.981 79.8672 169.314 79.8672C167.048 79.8672 165.082 79.3724 163.416 78.3828C161.749 77.3672 160.46 75.9219 159.548 74.0469C158.663 72.1458 158.22 69.8672 158.22 67.2109V63.9297C158.22 61.1432 158.676 58.7995 159.587 56.8984C160.499 54.9714 161.749 53.513 163.337 52.5234C164.926 51.5339 166.723 51.0391 168.728 51.0391C170.759 51.0391 172.543 51.5078 174.08 52.4453C175.642 53.3828 176.853 54.8151 177.712 56.7422C178.598 58.6432 179.041 61.0391 179.041 63.9297V67.2109L183.22 61.625H153.923V67.6016H187.322V64.75C187.322 60.6354 186.567 57.0286 185.056 53.9297C183.546 50.8047 181.397 48.3958 178.611 46.7031C175.851 44.9844 172.543 44.125 168.689 44.125C164.861 44.125 161.528 45.0234 158.689 46.8203C155.851 48.5911 153.65 51.0911 152.087 54.3203C150.525 57.5234 149.744 61.2604 149.744 65.5312V65.5703C149.744 69.8932 150.512 73.6562 152.048 76.8594C153.611 80.0365 155.837 82.4974 158.728 84.2422C161.645 85.9609 165.108 86.8203 169.119 86.8203ZM214.88 86.9375C219.333 86.9375 223.161 86.2604 226.364 84.9062C229.593 83.526 232.067 81.5859 233.786 79.0859C235.531 76.5599 236.403 73.5781 236.403 70.1406V70.1016C236.403 65.7526 235.075 62.3281 232.419 59.8281C229.789 57.3021 225.557 55.4271 219.723 54.2031L213.591 52.875C210.075 52.1198 207.484 51.0781 205.817 49.75C204.151 48.4219 203.317 46.7031 203.317 44.5938V44.5547C203.317 42.888 203.786 41.4427 204.723 40.2188C205.661 38.9948 206.989 38.0443 208.708 37.3672C210.427 36.6641 212.445 36.3125 214.762 36.3125C217.002 36.3125 218.968 36.651 220.661 37.3281C222.354 37.9792 223.721 38.9297 224.762 40.1797C225.83 41.4297 226.481 42.9401 226.716 44.7109L226.794 45.2188H235.348L235.309 44.5938C235.101 41.4167 234.124 38.6432 232.38 36.2734C230.635 33.8776 228.265 32.0156 225.27 30.6875C222.276 29.3594 218.825 28.6953 214.919 28.6953C210.934 28.6953 207.406 29.3854 204.333 30.7656C201.26 32.1198 198.851 34.0208 197.106 36.4688C195.361 38.8906 194.476 41.7031 194.45 44.9062V44.9453C194.45 49.112 195.804 52.4974 198.512 55.1016C201.221 57.6797 205.335 59.5547 210.856 60.7266L216.989 62.0156C220.739 62.8229 223.421 63.9036 225.036 65.2578C226.677 66.5859 227.497 68.3828 227.497 70.6484V70.6875C227.497 72.4323 226.989 73.9557 225.973 75.2578C224.984 76.5599 223.578 77.5625 221.755 78.2656C219.932 78.9688 217.757 79.3203 215.231 79.3203C212.731 79.3203 210.518 78.9818 208.591 78.3047C206.664 77.6276 205.101 76.6641 203.903 75.4141C202.731 74.138 202.015 72.6406 201.755 70.9219L201.677 70.4141H193.122L193.161 71C193.395 74.3073 194.437 77.1589 196.286 79.5547C198.135 81.9245 200.635 83.7474 203.786 85.0234C206.963 86.2995 210.661 86.9375 214.88 86.9375ZM261.695 86.8203C265.003 86.8203 267.919 86.1823 270.445 84.9062C272.997 83.6042 275.042 81.8594 276.578 79.6719C278.141 77.4583 279.078 74.9844 279.391 72.25V71.9766H271.266L271.227 72.2891C270.706 74.5026 269.638 76.2995 268.023 77.6797C266.435 79.0339 264.339 79.7109 261.734 79.7109C259.547 79.7109 257.633 79.151 255.992 78.0312C254.378 76.9115 253.115 75.2969 252.203 73.1875C251.292 71.0521 250.836 68.487 250.836 65.4922V65.4531C250.836 62.5365 251.279 60.0104 252.164 57.875C253.076 55.7396 254.339 54.099 255.953 52.9531C257.594 51.7812 259.495 51.1953 261.656 51.1953C264.417 51.1953 266.578 51.9375 268.141 53.4219C269.729 54.8802 270.745 56.612 271.188 58.6172L271.266 58.9688H279.352L279.312 58.6562C279.078 56.0781 278.232 53.6823 276.773 51.4688C275.315 49.2552 273.297 47.4844 270.719 46.1562C268.167 44.8021 265.133 44.125 261.617 44.125C257.711 44.125 254.299 44.9974 251.383 46.7422C248.466 48.4609 246.201 50.9089 244.586 54.0859C242.997 57.263 242.203 61.026 242.203 65.375V65.4141C242.203 69.7891 242.984 73.5781 244.547 76.7812C246.135 79.9844 248.388 82.4583 251.305 84.2031C254.247 85.9479 257.711 86.8203 261.695 86.8203ZM286.558 86H295.034V62.2109C295.034 60.0495 295.438 58.1615 296.245 56.5469C297.053 54.9323 298.172 53.6693 299.605 52.7578C301.063 51.8464 302.756 51.3906 304.683 51.3906C307.652 51.3906 309.956 52.3411 311.597 54.2422C313.237 56.1432 314.058 58.7995 314.058 62.2109V86H322.534V60.6094C322.534 57.3021 321.922 54.4115 320.698 51.9375C319.501 49.4635 317.808 47.5495 315.62 46.1953C313.459 44.8151 310.907 44.125 307.964 44.125C304.891 44.125 302.261 44.7891 300.073 46.1172C297.912 47.4193 296.297 49.2682 295.23 51.6641H295.034V29.6328H286.558V86ZM349.194 86.8203C353.1 86.8203 356.511 85.9609 359.428 84.2422C362.345 82.4974 364.61 80.0365 366.225 76.8594C367.866 73.6823 368.686 69.8802 368.686 65.4531V65.375C368.686 60.974 367.866 57.1849 366.225 54.0078C364.61 50.8307 362.332 48.3958 359.389 46.7031C356.472 44.9844 353.061 44.125 349.155 44.125C345.274 44.125 341.863 44.9844 338.92 46.7031C336.004 48.4219 333.725 50.8698 332.084 54.0469C330.47 57.224 329.663 61 329.663 65.375V65.4531C329.663 69.8542 330.47 73.6562 332.084 76.8594C333.699 80.0365 335.965 82.4974 338.881 84.2422C341.824 85.9609 345.261 86.8203 349.194 86.8203ZM349.233 79.7109C347.019 79.7109 345.092 79.151 343.452 78.0312C341.811 76.9115 340.535 75.2969 339.623 73.1875C338.738 71.0521 338.295 68.474 338.295 65.4531V65.375C338.295 62.3802 338.751 59.8281 339.663 57.7188C340.574 55.6094 341.837 53.9948 343.452 52.875C345.092 51.7552 346.993 51.1953 349.155 51.1953C351.342 51.1953 353.256 51.7552 354.897 52.875C356.538 53.9688 357.801 55.5833 358.686 57.7188C359.571 59.8281 360.014 62.3802 360.014 65.375V65.4531C360.014 68.474 359.571 71.0521 358.686 73.1875C357.801 75.2969 356.551 76.9115 354.936 78.0312C353.321 79.151 351.42 79.7109 349.233 79.7109ZM393.744 86.8203C397.65 86.8203 401.061 85.9609 403.978 84.2422C406.895 82.4974 409.16 80.0365 410.775 76.8594C412.416 73.6823 413.236 69.8802 413.236 65.4531V65.375C413.236 60.974 412.416 57.1849 410.775 54.0078C409.16 50.8307 406.882 48.3958 403.939 46.7031C401.022 44.9844 397.611 44.125 393.705 44.125C389.824 44.125 386.413 44.9844 383.47 46.7031C380.554 48.4219 378.275 50.8698 376.634 54.0469C375.02 57.224 374.212 61 374.212 65.375V65.4531C374.212 69.8542 375.02 73.6562 376.634 76.8594C378.249 80.0365 380.515 82.4974 383.431 84.2422C386.374 85.9609 389.811 86.8203 393.744 86.8203ZM393.783 79.7109C391.569 79.7109 389.642 79.151 388.002 78.0312C386.361 76.9115 385.085 75.2969 384.173 73.1875C383.288 71.0521 382.845 68.474 382.845 65.4531V65.375C382.845 62.3802 383.301 59.8281 384.212 57.7188C385.124 55.6094 386.387 53.9948 388.002 52.875C389.642 51.7552 391.543 51.1953 393.705 51.1953C395.892 51.1953 397.806 51.7552 399.447 52.875C401.087 53.9688 402.351 55.5833 403.236 57.7188C404.121 59.8281 404.564 62.3802 404.564 65.375V65.4531C404.564 68.474 404.121 71.0521 403.236 73.1875C402.351 75.2969 401.101 76.9115 399.486 78.0312C397.871 79.151 395.97 79.7109 393.783 79.7109ZM420.911 86H429.388V29.6328H420.911V86Z" fill="#DCA007"/>
<path d="M6.91699 127.29C8.13574 127.29 9.1875 127.021 10.0723 126.481C10.9629 125.937 11.6455 125.169 12.1201 124.179C12.6006 123.188 12.8408 122.017 12.8408 120.663V120.646C12.8408 119.292 12.6006 118.12 12.1201 117.13C11.6396 116.14 10.957 115.375 10.0723 114.836C9.1875 114.297 8.13574 114.027 6.91699 114.027C5.7041 114.027 4.65234 114.297 3.76172 114.836C2.87695 115.375 2.19141 116.14 1.70508 117.13C1.22461 118.114 0.984375 119.286 0.984375 120.646V120.663C0.984375 122.017 1.22168 123.188 1.69629 124.179C2.17676 125.169 2.85938 125.937 3.74414 126.481C4.62891 127.021 5.68652 127.29 6.91699 127.29ZM6.91699 125.541C6.1084 125.541 5.41113 125.342 4.8252 124.943C4.23926 124.539 3.78809 123.971 3.47168 123.238C3.15527 122.506 2.99707 121.647 2.99707 120.663V120.646C2.99707 119.649 3.1582 118.788 3.48047 118.062C3.80273 117.335 4.25684 116.772 4.84277 116.374C5.42871 115.976 6.12012 115.776 6.91699 115.776C7.71387 115.776 8.40527 115.976 8.99121 116.374C9.57715 116.772 10.0283 117.338 10.3447 118.07C10.6611 118.797 10.8193 119.655 10.8193 120.646V120.663C10.8193 121.647 10.6611 122.506 10.3447 123.238C10.0283 123.965 9.57715 124.53 8.99121 124.935C8.41113 125.339 7.71973 125.541 6.91699 125.541ZM23.5368 127.185C24.2926 127.185 24.9635 127.062 25.5495 126.815C26.1413 126.569 26.6071 126.227 26.9469 125.787C27.2868 125.342 27.4567 124.826 27.4567 124.24V124.223C27.4567 123.537 27.237 122.992 26.7975 122.588C26.3639 122.178 25.6842 121.867 24.7584 121.656L23.2467 121.305C22.7252 121.182 22.3502 121.023 22.1217 120.83C21.8932 120.637 21.7789 120.394 21.7789 120.101V120.083C21.7789 119.825 21.8522 119.603 21.9987 119.415C22.151 119.228 22.359 119.081 22.6227 118.976C22.8864 118.87 23.1911 118.817 23.5368 118.817C24.0758 118.817 24.5065 118.932 24.8288 119.16C25.1569 119.389 25.362 119.679 25.444 120.03V120.057H27.2633V120.021C27.2106 119.5 27.0289 119.04 26.7184 118.642C26.4079 118.237 25.983 117.921 25.444 117.692C24.9049 117.458 24.2721 117.341 23.5455 117.341C22.8307 117.341 22.195 117.464 21.6383 117.71C21.0817 117.95 20.6452 118.284 20.3288 118.712C20.0182 119.134 19.8629 119.623 19.8629 120.18V120.188C19.8629 120.88 20.0797 121.439 20.5133 121.867C20.9469 122.295 21.612 122.611 22.5084 122.816L24.0202 123.159C24.5592 123.288 24.943 123.452 25.1715 123.651C25.4059 123.851 25.5231 124.1 25.5231 124.398V124.416C25.5231 124.674 25.4411 124.899 25.277 125.093C25.1129 125.286 24.8844 125.438 24.5914 125.55C24.3043 125.655 23.9645 125.708 23.5719 125.708C23.0036 125.708 22.5495 125.597 22.2096 125.374C21.8698 125.146 21.6413 124.844 21.5241 124.469L21.5153 124.442H19.608L19.6168 124.469C19.6754 125.008 19.8688 125.482 20.1969 125.893C20.5309 126.297 20.9791 126.613 21.5416 126.842C22.1041 127.07 22.7692 127.185 23.5368 127.185ZM33.3408 127.185C33.9033 127.185 34.413 127.108 34.8701 126.956C35.3271 126.804 35.7226 126.596 36.0566 126.332C36.3964 126.062 36.6718 125.761 36.8828 125.427C37.0937 125.093 37.2373 124.744 37.3134 124.381L37.331 124.284H35.5205L35.4941 124.354C35.4179 124.589 35.2832 124.803 35.0898 124.996C34.9023 125.184 34.665 125.336 34.3779 125.453C34.0908 125.564 33.7597 125.62 33.3847 125.62C32.875 125.62 32.4326 125.509 32.0576 125.286C31.6826 125.058 31.3925 124.732 31.1875 124.311C30.9882 123.883 30.8886 123.37 30.8886 122.772V122.034C30.8886 121.407 30.9912 120.88 31.1963 120.452C31.4013 120.019 31.6826 119.69 32.04 119.468C32.3974 119.245 32.8017 119.134 33.2529 119.134C33.7099 119.134 34.1113 119.239 34.457 119.45C34.8086 119.661 35.081 119.983 35.2744 120.417C35.4736 120.845 35.5732 121.384 35.5732 122.034V122.772L36.5136 121.516H29.9218V122.86H37.4365V122.219C37.4365 121.293 37.2666 120.481 36.9267 119.784C36.5869 119.081 36.1035 118.539 35.4765 118.158C34.8554 117.771 34.1113 117.578 33.2441 117.578C32.3828 117.578 31.6328 117.78 30.9941 118.185C30.3554 118.583 29.8603 119.146 29.5088 119.872C29.1572 120.593 28.9814 121.434 28.9814 122.395V122.403C28.9814 123.376 29.1543 124.223 29.5 124.943C29.8515 125.658 30.3525 126.212 31.0029 126.604C31.6591 126.991 32.4384 127.185 33.3408 127.185ZM43.3206 127.185C44.0179 127.185 44.6038 127.041 45.0784 126.754C45.553 126.467 45.9075 126.071 46.1419 125.567H46.2649V127H48.1721V117.525H46.2649V123.08C46.2649 123.578 46.1741 124.012 45.9925 124.381C45.8167 124.75 45.5559 125.037 45.2102 125.242C44.8704 125.441 44.4544 125.541 43.9622 125.541C43.2708 125.541 42.7669 125.348 42.4505 124.961C42.1399 124.574 41.9846 123.997 41.9846 123.229V117.525H40.0774V123.66C40.0774 124.398 40.1975 125.031 40.4378 125.559C40.6839 126.086 41.0501 126.49 41.5364 126.771C42.0227 127.047 42.6175 127.185 43.3206 127.185ZM56.328 127H58.2353V119.037H60.2743V117.525H58.2177V116.611C58.2177 116.143 58.3261 115.788 58.5429 115.548C58.7655 115.308 59.1288 115.188 59.6327 115.188C59.7734 115.188 59.9052 115.193 60.0282 115.205C60.1513 115.211 60.2568 115.22 60.3447 115.231V113.834C60.1864 113.805 60.0136 113.784 59.8261 113.772C59.6386 113.755 59.4394 113.746 59.2284 113.746C58.2499 113.746 57.5204 113.978 57.04 114.44C56.5654 114.897 56.328 115.592 56.328 116.523V117.525H54.8251V119.037H56.328V127ZM65.6223 127.185C66.3196 127.185 66.9055 127.041 67.3801 126.754C67.8547 126.467 68.2092 126.071 68.4436 125.567H68.5666V127H70.4739V117.525H68.5666V123.08C68.5666 123.578 68.4758 124.012 68.2942 124.381C68.1184 124.75 67.8577 125.037 67.512 125.242C67.1721 125.441 66.7561 125.541 66.2639 125.541C65.5725 125.541 65.0686 125.348 64.7522 124.961C64.4416 124.574 64.2864 123.997 64.2864 123.229V117.525H62.3791V123.66C62.3791 124.398 62.4993 125.031 62.7395 125.559C62.9856 126.086 63.3518 126.49 63.8381 126.771C64.3245 127.047 64.9192 127.185 65.6223 127.185ZM76.7183 127.088C76.9058 127.088 77.0875 127.079 77.2632 127.062C77.439 127.044 77.5972 127.023 77.7379 127V125.488C77.6207 125.494 77.5123 125.503 77.4127 125.515C77.313 125.521 77.1959 125.523 77.0611 125.523C76.6099 125.523 76.2789 125.415 76.0679 125.198C75.8629 124.981 75.7603 124.624 75.7603 124.126V119.037H77.7379V117.525H75.7603V115.117H73.8091V117.525H72.3589V119.037H73.8091V124.504C73.8091 125.418 74.0406 126.077 74.5035 126.481C74.9664 126.886 75.7047 127.088 76.7183 127.088ZM83.1561 127.185C83.8534 127.185 84.4393 127.041 84.9139 126.754C85.3886 126.467 85.743 126.071 85.9774 125.567H86.1005V127H88.0077V117.525H86.1005V123.08C86.1005 123.578 86.0097 124.012 85.828 124.381C85.6522 124.75 85.3915 125.037 85.0458 125.242C84.7059 125.441 84.2899 125.541 83.7977 125.541C83.1063 125.541 82.6024 125.348 82.286 124.961C81.9755 124.574 81.8202 123.997 81.8202 123.229V117.525H79.913V123.66C79.913 124.398 80.0331 125.031 80.2733 125.559C80.5194 126.086 80.8856 126.49 81.372 126.771C81.8583 127.047 82.453 127.185 83.1561 127.185ZM90.7277 127H92.6438V121.34C92.6438 120.883 92.7404 120.487 92.9338 120.153C93.1272 119.813 93.3996 119.553 93.7512 119.371C94.1027 119.184 94.5129 119.09 94.9816 119.09C95.1633 119.09 95.3361 119.102 95.5002 119.125C95.6643 119.143 95.8195 119.169 95.966 119.204V117.438C95.8781 117.42 95.7609 117.402 95.6145 117.385C95.4738 117.367 95.3273 117.358 95.175 117.358C94.5656 117.358 94.0529 117.502 93.6369 117.789C93.2209 118.076 92.9309 118.48 92.7668 119.002H92.6438V117.525H90.7277V127ZM101.191 127.185C102.07 127.185 102.837 126.991 103.494 126.604C104.15 126.212 104.66 125.658 105.023 124.943C105.392 124.229 105.577 123.373 105.577 122.377V122.359C105.577 121.369 105.392 120.517 105.023 119.802C104.66 119.087 104.147 118.539 103.485 118.158C102.829 117.771 102.061 117.578 101.182 117.578C100.309 117.578 99.5415 117.771 98.8794 118.158C98.2232 118.545 97.7105 119.096 97.3413 119.811C96.9781 120.525 96.7964 121.375 96.7964 122.359V122.377C96.7964 123.367 96.9781 124.223 97.3413 124.943C97.7046 125.658 98.2144 126.212 98.8706 126.604C99.5327 126.991 100.306 127.185 101.191 127.185ZM101.2 125.585C100.702 125.585 100.268 125.459 99.8989 125.207C99.5298 124.955 99.2427 124.592 99.0376 124.117C98.8384 123.637 98.7388 123.057 98.7388 122.377V122.359C98.7388 121.686 98.8413 121.111 99.0464 120.637C99.2515 120.162 99.5357 119.799 99.8989 119.547C100.268 119.295 100.696 119.169 101.182 119.169C101.674 119.169 102.105 119.295 102.474 119.547C102.843 119.793 103.127 120.156 103.327 120.637C103.526 121.111 103.626 121.686 103.626 122.359V122.377C103.626 123.057 103.526 123.637 103.327 124.117C103.127 124.592 102.846 124.955 102.483 125.207C102.12 125.459 101.692 125.585 101.2 125.585ZM113.1 127H115.016V121.445C115.016 120.941 115.107 120.505 115.288 120.136C115.47 119.767 115.728 119.482 116.062 119.283C116.402 119.078 116.8 118.976 117.257 118.976C117.948 118.976 118.461 119.169 118.795 119.556C119.129 119.942 119.296 120.522 119.296 121.296V127H121.203V120.865C121.203 119.746 120.919 118.879 120.351 118.264C119.788 117.648 118.977 117.341 117.916 117.341C117.219 117.341 116.639 117.487 116.176 117.78C115.719 118.067 115.373 118.46 115.139 118.958H115.016V117.525H113.1V127ZM127.5 127.185C128.379 127.185 129.147 126.991 129.803 126.604C130.459 126.212 130.969 125.658 131.332 124.943C131.702 124.229 131.886 123.373 131.886 122.377V122.359C131.886 121.369 131.702 120.517 131.332 119.802C130.969 119.087 130.457 118.539 129.794 118.158C129.138 117.771 128.371 117.578 127.492 117.578C126.619 117.578 125.851 117.771 125.189 118.158C124.533 118.545 124.02 119.096 123.651 119.811C123.288 120.525 123.106 121.375 123.106 122.359V122.377C123.106 123.367 123.288 124.223 123.651 124.943C124.014 125.658 124.524 126.212 125.18 126.604C125.842 126.991 126.616 127.185 127.5 127.185ZM127.509 125.585C127.011 125.585 126.578 125.459 126.208 125.207C125.839 124.955 125.552 124.592 125.347 124.117C125.148 123.637 125.048 123.057 125.048 122.377V122.359C125.048 121.686 125.151 121.111 125.356 120.637C125.561 120.162 125.845 119.799 126.208 119.547C126.578 119.295 127.005 119.169 127.492 119.169C127.984 119.169 128.415 119.295 128.784 119.547C129.153 119.793 129.437 120.156 129.636 120.637C129.835 121.111 129.935 121.686 129.935 122.359V122.377C129.935 123.057 129.835 123.637 129.636 124.117C129.437 124.592 129.156 124.955 128.792 125.207C128.429 125.459 128.001 125.585 127.509 125.585ZM139.409 127H141.325V121.173C141.325 120.763 141.41 120.394 141.58 120.065C141.75 119.731 141.984 119.468 142.283 119.274C142.588 119.075 142.928 118.976 143.303 118.976C143.859 118.976 144.302 119.137 144.63 119.459C144.958 119.775 145.122 120.206 145.122 120.751V127H147.021V121.023C147.021 120.637 147.103 120.291 147.267 119.986C147.431 119.676 147.662 119.43 147.961 119.248C148.26 119.066 148.609 118.976 149.007 118.976C149.61 118.976 150.065 119.143 150.369 119.477C150.674 119.805 150.826 120.288 150.826 120.927V127H152.734V120.47C152.734 119.819 152.61 119.263 152.364 118.8C152.124 118.331 151.776 117.971 151.318 117.719C150.867 117.467 150.322 117.341 149.684 117.341C149.244 117.341 148.834 117.414 148.453 117.561C148.072 117.701 147.738 117.9 147.451 118.158C147.17 118.416 146.947 118.721 146.783 119.072H146.66C146.526 118.721 146.335 118.416 146.089 118.158C145.843 117.895 145.547 117.692 145.201 117.552C144.856 117.411 144.466 117.341 144.032 117.341C143.411 117.341 142.875 117.487 142.424 117.78C141.979 118.067 141.653 118.469 141.448 118.984H141.325V117.525H139.409V127ZM158.547 127.185C159.245 127.185 159.831 127.041 160.305 126.754C160.78 126.467 161.134 126.071 161.369 125.567H161.492V127H163.399V117.525H161.492V123.08C161.492 123.578 161.401 124.012 161.219 124.381C161.043 124.75 160.783 125.037 160.437 125.242C160.097 125.441 159.681 125.541 159.189 125.541C158.497 125.541 157.994 125.348 157.677 124.961C157.367 124.574 157.211 123.997 157.211 123.229V117.525H155.304V123.66C155.304 124.398 155.424 125.031 155.664 125.559C155.911 126.086 156.277 126.49 156.763 126.771C157.249 127.047 157.844 127.185 158.547 127.185ZM166.119 127H168.035V121.445C168.035 120.941 168.126 120.505 168.307 120.136C168.489 119.767 168.747 119.482 169.081 119.283C169.421 119.078 169.819 118.976 170.276 118.976C170.968 118.976 171.48 119.169 171.814 119.556C172.148 119.942 172.315 120.522 172.315 121.296V127H174.222V120.865C174.222 119.746 173.938 118.879 173.37 118.264C172.807 117.648 171.996 117.341 170.935 117.341C170.238 117.341 169.658 117.487 169.195 117.78C168.738 118.067 168.392 118.46 168.158 118.958H168.035V117.525H166.119V127ZM179.992 127.185C180.654 127.185 181.234 127.029 181.732 126.719C182.231 126.402 182.617 125.975 182.893 125.436H182.928V127H184.844V114.317H182.928V119.327H182.893C182.611 118.782 182.216 118.354 181.706 118.044C181.202 117.733 180.625 117.578 179.975 117.578C179.201 117.578 178.524 117.774 177.944 118.167C177.37 118.554 176.922 119.104 176.6 119.819C176.283 120.534 176.125 121.384 176.125 122.368V122.377C176.125 123.361 176.283 124.214 176.6 124.935C176.916 125.649 177.364 126.203 177.944 126.596C178.524 126.988 179.207 127.185 179.992 127.185ZM180.493 125.541C179.995 125.541 179.565 125.415 179.201 125.163C178.838 124.911 178.557 124.548 178.357 124.073C178.164 123.593 178.067 123.027 178.067 122.377V122.368C178.067 121.718 178.164 121.158 178.357 120.689C178.557 120.215 178.838 119.852 179.201 119.6C179.565 119.342 179.995 119.213 180.493 119.213C180.974 119.213 181.396 119.345 181.759 119.608C182.122 119.866 182.409 120.232 182.62 120.707C182.831 121.176 182.937 121.729 182.937 122.368V122.377C182.937 123.016 182.831 123.572 182.62 124.047C182.415 124.521 182.128 124.891 181.759 125.154C181.396 125.412 180.974 125.541 180.493 125.541ZM191.756 127.185C192.635 127.185 193.403 126.991 194.059 126.604C194.715 126.212 195.225 125.658 195.588 124.943C195.957 124.229 196.142 123.373 196.142 122.377V122.359C196.142 121.369 195.957 120.517 195.588 119.802C195.225 119.087 194.712 118.539 194.05 118.158C193.394 117.771 192.626 117.578 191.747 117.578C190.874 117.578 190.107 117.771 189.445 118.158C188.788 118.545 188.276 119.096 187.907 119.811C187.543 120.525 187.362 121.375 187.362 122.359V122.377C187.362 123.367 187.543 124.223 187.907 124.943C188.27 125.658 188.78 126.212 189.436 126.604C190.098 126.991 190.871 127.185 191.756 127.185ZM191.765 125.585C191.267 125.585 190.833 125.459 190.464 125.207C190.095 124.955 189.808 124.592 189.603 124.117C189.404 123.637 189.304 123.057 189.304 122.377V122.359C189.304 121.686 189.407 121.111 189.612 120.637C189.817 120.162 190.101 119.799 190.464 119.547C190.833 119.295 191.261 119.169 191.747 119.169C192.24 119.169 192.67 119.295 193.039 119.547C193.409 119.793 193.693 120.156 193.892 120.637C194.091 121.111 194.191 121.686 194.191 122.359V122.377C194.191 123.057 194.091 123.637 193.892 124.117C193.693 124.592 193.412 124.955 193.048 125.207C192.685 125.459 192.257 125.585 191.765 125.585ZM206.794 127.185C207.456 127.185 208.036 127.029 208.534 126.719C209.032 126.402 209.419 125.975 209.694 125.436H209.73V127H211.646V114.317H209.73V119.327H209.694C209.413 118.782 209.018 118.354 208.508 118.044C208.004 117.733 207.427 117.578 206.776 117.578C206.003 117.578 205.326 117.774 204.746 118.167C204.172 118.554 203.724 119.104 203.401 119.819C203.085 120.534 202.927 121.384 202.927 122.368V122.377C202.927 123.361 203.085 124.214 203.401 124.935C203.718 125.649 204.166 126.203 204.746 126.596C205.326 126.988 206.009 127.185 206.794 127.185ZM207.295 125.541C206.797 125.541 206.366 125.415 206.003 125.163C205.64 124.911 205.358 124.548 205.159 124.073C204.966 123.593 204.869 123.027 204.869 122.377V122.368C204.869 121.718 204.966 121.158 205.159 120.689C205.358 120.215 205.64 119.852 206.003 119.6C206.366 119.342 206.797 119.213 207.295 119.213C207.775 119.213 208.197 119.345 208.561 119.608C208.924 119.866 209.211 120.232 209.422 120.707C209.633 121.176 209.738 121.729 209.738 122.368V122.377C209.738 123.016 209.633 123.572 209.422 124.047C209.217 124.521 208.93 124.891 208.561 125.154C208.197 125.412 207.775 125.541 207.295 125.541ZM217.547 127.167C217.969 127.167 218.359 127.105 218.716 126.982C219.074 126.859 219.393 126.684 219.674 126.455C219.955 126.221 220.19 125.942 220.377 125.62H220.5V127H222.399V120.505C222.399 119.849 222.252 119.286 221.959 118.817C221.666 118.343 221.239 117.979 220.676 117.728C220.119 117.47 219.446 117.341 218.655 117.341C217.922 117.341 217.278 117.455 216.721 117.684C216.17 117.906 215.725 118.217 215.385 118.615C215.051 119.014 214.849 119.474 214.779 119.995L214.77 120.074H216.598L216.616 120.03C216.721 119.685 216.941 119.415 217.275 119.222C217.609 119.022 218.045 118.923 218.584 118.923C219.211 118.923 219.686 119.063 220.008 119.345C220.336 119.626 220.5 120.024 220.5 120.54V123.484C220.5 123.895 220.395 124.261 220.184 124.583C219.973 124.905 219.683 125.163 219.314 125.356C218.945 125.544 218.529 125.638 218.066 125.638C217.55 125.638 217.128 125.518 216.8 125.277C216.472 125.031 216.308 124.691 216.308 124.258V124.24C216.308 123.824 216.463 123.496 216.774 123.256C217.084 123.016 217.556 122.878 218.189 122.843L221.45 122.641V121.296L217.934 121.507C216.809 121.571 215.939 121.844 215.324 122.324C214.708 122.805 214.401 123.467 214.401 124.311V124.328C214.401 124.902 214.536 125.403 214.805 125.831C215.08 126.253 215.452 126.581 215.921 126.815C216.396 127.05 216.938 127.167 217.547 127.167ZM233.376 127.088C233.563 127.088 233.745 127.079 233.921 127.062C234.097 127.044 234.255 127.023 234.396 127V125.488C234.278 125.494 234.17 125.503 234.07 125.515C233.971 125.521 233.854 125.523 233.719 125.523C233.268 125.523 232.937 125.415 232.726 125.198C232.521 124.981 232.418 124.624 232.418 124.126V119.037H234.396V117.525H232.418V115.117H230.467V117.525H229.017V119.037H230.467V124.504C230.467 125.418 230.698 126.077 231.161 126.481C231.624 126.886 232.362 127.088 233.376 127.088ZM240.121 127.185C240.684 127.185 241.194 127.108 241.651 126.956C242.108 126.804 242.503 126.596 242.837 126.332C243.177 126.062 243.452 125.761 243.663 125.427C243.874 125.093 244.018 124.744 244.094 124.381L244.112 124.284H242.301L242.275 124.354C242.199 124.589 242.064 124.803 241.87 124.996C241.683 125.184 241.446 125.336 241.159 125.453C240.871 125.564 240.54 125.62 240.165 125.62C239.656 125.62 239.213 125.509 238.838 125.286C238.463 125.058 238.173 124.732 237.968 124.311C237.769 123.883 237.669 123.37 237.669 122.772V122.034C237.669 121.407 237.772 120.88 237.977 120.452C238.182 120.019 238.463 119.69 238.821 119.468C239.178 119.245 239.582 119.134 240.034 119.134C240.491 119.134 240.892 119.239 241.238 119.45C241.589 119.661 241.862 119.983 242.055 120.417C242.254 120.845 242.354 121.384 242.354 122.034V122.772L243.294 121.516H236.702V122.86H244.217V122.219C244.217 121.293 244.047 120.481 243.707 119.784C243.367 119.081 242.884 118.539 242.257 118.158C241.636 117.771 240.892 117.578 240.025 117.578C239.163 117.578 238.413 117.78 237.775 118.185C237.136 118.583 236.641 119.146 236.289 119.872C235.938 120.593 235.762 121.434 235.762 122.395V122.403C235.762 123.376 235.935 124.223 236.281 124.943C236.632 125.658 237.133 126.212 237.784 126.604C238.44 126.991 239.219 127.185 240.121 127.185ZM250.576 127.185C251.32 127.185 251.976 127.041 252.545 126.754C253.119 126.461 253.579 126.068 253.924 125.576C254.276 125.078 254.487 124.521 254.557 123.906V123.845H252.729L252.72 123.915C252.603 124.413 252.363 124.817 252 125.128C251.642 125.433 251.171 125.585 250.585 125.585C250.092 125.585 249.662 125.459 249.293 125.207C248.929 124.955 248.645 124.592 248.44 124.117C248.235 123.637 248.132 123.06 248.132 122.386V122.377C248.132 121.721 248.232 121.152 248.431 120.672C248.636 120.191 248.921 119.822 249.284 119.564C249.653 119.301 250.081 119.169 250.567 119.169C251.188 119.169 251.674 119.336 252.026 119.67C252.383 119.998 252.612 120.388 252.712 120.839L252.729 120.918H254.548L254.54 120.848C254.487 120.268 254.297 119.729 253.968 119.23C253.64 118.732 253.186 118.334 252.606 118.035C252.032 117.73 251.349 117.578 250.558 117.578C249.679 117.578 248.912 117.774 248.256 118.167C247.599 118.554 247.089 119.104 246.726 119.819C246.369 120.534 246.19 121.381 246.19 122.359V122.368C246.19 123.353 246.366 124.205 246.717 124.926C247.075 125.646 247.582 126.203 248.238 126.596C248.9 126.988 249.679 127.185 250.576 127.185ZM257.145 127H259.061V121.445C259.061 120.941 259.152 120.505 259.334 120.136C259.516 119.767 259.773 119.482 260.107 119.283C260.447 119.078 260.846 118.976 261.303 118.976C261.994 118.976 262.507 119.169 262.841 119.556C263.175 119.942 263.342 120.522 263.342 121.296V127H265.249V120.865C265.249 119.746 264.965 118.879 264.396 118.264C263.834 117.648 263.022 117.341 261.962 117.341C261.265 117.341 260.685 117.487 260.222 117.78C259.765 118.067 259.419 118.46 259.185 118.958H259.061V117.525H257.145V127ZM271.546 127.185C272.425 127.185 273.193 126.991 273.849 126.604C274.505 126.212 275.015 125.658 275.378 124.943C275.747 124.229 275.932 123.373 275.932 122.377V122.359C275.932 121.369 275.747 120.517 275.378 119.802C275.015 119.087 274.502 118.539 273.84 118.158C273.184 117.771 272.416 117.578 271.537 117.578C270.664 117.578 269.897 117.771 269.235 118.158C268.578 118.545 268.066 119.096 267.697 119.811C267.333 120.525 267.152 121.375 267.152 122.359V122.377C267.152 123.367 267.333 124.223 267.697 124.943C268.06 125.658 268.57 126.212 269.226 126.604C269.888 126.991 270.661 127.185 271.546 127.185ZM271.555 125.585C271.057 125.585 270.623 125.459 270.254 125.207C269.885 124.955 269.598 124.592 269.393 124.117C269.194 123.637 269.094 123.057 269.094 122.377V122.359C269.094 121.686 269.197 121.111 269.402 120.637C269.607 120.162 269.891 119.799 270.254 119.547C270.623 119.295 271.051 119.169 271.537 119.169C272.03 119.169 272.46 119.295 272.829 119.547C273.199 119.793 273.483 120.156 273.682 120.637C273.881 121.111 273.981 121.686 273.981 122.359V122.377C273.981 123.057 273.881 123.637 273.682 124.117C273.483 124.592 273.201 124.955 272.838 125.207C272.475 125.459 272.047 125.585 271.555 125.585ZM278.415 127H280.322V114.317H278.415V127ZM287.129 127.185C288.008 127.185 288.775 126.991 289.432 126.604C290.088 126.212 290.598 125.658 290.961 124.943C291.33 124.229 291.515 123.373 291.515 122.377V122.359C291.515 121.369 291.33 120.517 290.961 119.802C290.598 119.087 290.085 118.539 289.423 118.158C288.767 117.771 287.999 117.578 287.12 117.578C286.247 117.578 285.479 117.771 284.817 118.158C284.161 118.545 283.648 119.096 283.279 119.811C282.916 120.525 282.734 121.375 282.734 122.359V122.377C282.734 123.367 282.916 124.223 283.279 124.943C283.642 125.658 284.152 126.212 284.809 126.604C285.471 126.991 286.244 127.185 287.129 127.185ZM287.138 125.585C286.64 125.585 286.206 125.459 285.837 125.207C285.468 124.955 285.181 124.592 284.975 124.117C284.776 123.637 284.677 123.057 284.677 122.377V122.359C284.677 121.686 284.779 121.111 284.984 120.637C285.189 120.162 285.474 119.799 285.837 119.547C286.206 119.295 286.634 119.169 287.12 119.169C287.612 119.169 288.043 119.295 288.412 119.547C288.781 119.793 289.065 120.156 289.265 120.637C289.464 121.111 289.563 121.686 289.563 122.359V122.377C289.563 123.057 289.464 123.637 289.265 124.117C289.065 124.592 288.784 124.955 288.421 125.207C288.058 125.459 287.63 125.585 287.138 125.585ZM298.295 130.34C299.192 130.34 299.968 130.193 300.624 129.9C301.281 129.607 301.787 129.194 302.145 128.661C302.502 128.134 302.681 127.51 302.681 126.789V117.525H300.774V119.099H300.677C300.49 118.741 300.252 118.434 299.965 118.176C299.684 117.912 299.356 117.71 298.981 117.569C298.612 117.429 298.204 117.358 297.759 117.358C296.945 117.358 296.241 117.555 295.65 117.947C295.058 118.34 294.598 118.888 294.27 119.591C293.948 120.288 293.786 121.097 293.786 122.017V122.034C293.786 122.948 293.948 123.751 294.27 124.442C294.592 125.134 295.046 125.676 295.632 126.068C296.224 126.455 296.921 126.648 297.724 126.648C298.163 126.648 298.571 126.587 298.946 126.464C299.321 126.335 299.652 126.15 299.939 125.91C300.232 125.664 300.472 125.368 300.659 125.022H300.782V126.754C300.782 127.404 300.566 127.908 300.132 128.266C299.698 128.629 299.092 128.811 298.313 128.811C297.686 128.811 297.179 128.708 296.792 128.503C296.411 128.298 296.177 128.034 296.089 127.712L296.072 127.686H294.147V127.721C294.229 128.236 294.443 128.69 294.788 129.083C295.14 129.476 295.612 129.783 296.203 130.006C296.795 130.229 297.492 130.34 298.295 130.34ZM298.251 125.075C297.724 125.075 297.273 124.949 296.898 124.697C296.523 124.439 296.236 124.085 296.036 123.634C295.837 123.177 295.738 122.644 295.738 122.034V122.025C295.738 121.422 295.837 120.892 296.036 120.435C296.236 119.978 296.523 119.623 296.898 119.371C297.273 119.113 297.724 118.984 298.251 118.984C298.779 118.984 299.233 119.113 299.614 119.371C299.994 119.623 300.287 119.978 300.492 120.435C300.703 120.892 300.809 121.422 300.809 122.025V122.043C300.809 122.641 300.703 123.168 300.492 123.625C300.287 124.082 299.994 124.439 299.614 124.697C299.233 124.949 298.779 125.075 298.251 125.075ZM305.445 127H307.352V117.525H305.445V127ZM306.403 115.891C306.731 115.891 307.009 115.776 307.238 115.548C307.466 115.313 307.581 115.038 307.581 114.722C307.581 114.394 307.466 114.118 307.238 113.896C307.009 113.667 306.731 113.553 306.403 113.553C306.081 113.553 305.802 113.667 305.568 113.896C305.339 114.118 305.225 114.394 305.225 114.722C305.225 115.038 305.339 115.313 305.568 115.548C305.802 115.776 306.081 115.891 306.403 115.891ZM312.762 127.167C313.183 127.167 313.573 127.105 313.931 126.982C314.288 126.859 314.607 126.684 314.889 126.455C315.17 126.221 315.404 125.942 315.592 125.62H315.715V127H317.613V120.505C317.613 119.849 317.467 119.286 317.174 118.817C316.881 118.343 316.453 117.979 315.891 117.728C315.334 117.47 314.66 117.341 313.869 117.341C313.137 117.341 312.492 117.455 311.935 117.684C311.385 117.906 310.939 118.217 310.599 118.615C310.266 119.014 310.063 119.474 309.993 119.995L309.984 120.074H311.812L311.83 120.03C311.935 119.685 312.155 119.415 312.489 119.222C312.823 119.022 313.26 118.923 313.799 118.923C314.426 118.923 314.9 119.063 315.223 119.345C315.551 119.626 315.715 120.024 315.715 120.54V123.484C315.715 123.895 315.609 124.261 315.398 124.583C315.187 124.905 314.897 125.163 314.528 125.356C314.159 125.544 313.743 125.638 313.28 125.638C312.765 125.638 312.343 125.518 312.015 125.277C311.686 125.031 311.522 124.691 311.522 124.258V124.24C311.522 123.824 311.678 123.496 311.988 123.256C312.299 123.016 312.77 122.878 313.403 122.843L316.664 122.641V121.296L313.148 121.507C312.023 121.571 311.153 121.844 310.538 122.324C309.923 122.805 309.615 123.467 309.615 124.311V124.328C309.615 124.902 309.75 125.403 310.019 125.831C310.295 126.253 310.667 126.581 311.136 126.815C311.61 127.05 312.152 127.167 312.762 127.167ZM328.713 127.185C329.458 127.185 330.114 127.041 330.682 126.754C331.256 126.461 331.716 126.068 332.062 125.576C332.414 125.078 332.625 124.521 332.695 123.906V123.845H330.867L330.858 123.915C330.741 124.413 330.501 124.817 330.137 125.128C329.78 125.433 329.308 125.585 328.722 125.585C328.23 125.585 327.799 125.459 327.43 125.207C327.067 124.955 326.783 124.592 326.578 124.117C326.373 123.637 326.27 123.06 326.27 122.386V122.377C326.27 121.721 326.37 121.152 326.569 120.672C326.774 120.191 327.058 119.822 327.421 119.564C327.791 119.301 328.218 119.169 328.705 119.169C329.326 119.169 329.812 119.336 330.164 119.67C330.521 119.998 330.75 120.388 330.849 120.839L330.867 120.918H332.686L332.677 120.848C332.625 120.268 332.434 119.729 332.106 119.23C331.778 118.732 331.324 118.334 330.744 118.035C330.169 117.73 329.487 117.578 328.696 117.578C327.817 117.578 327.049 117.774 326.393 118.167C325.737 118.554 325.227 119.104 324.864 119.819C324.506 120.534 324.328 121.381 324.328 122.359V122.368C324.328 123.353 324.503 124.205 324.855 124.926C325.212 125.646 325.719 126.203 326.376 126.596C327.038 126.988 327.817 127.185 328.713 127.185ZM338.939 127.185C339.818 127.185 340.586 126.991 341.242 126.604C341.898 126.212 342.408 125.658 342.771 124.943C343.14 124.229 343.325 123.373 343.325 122.377V122.359C343.325 121.369 343.14 120.517 342.771 119.802C342.408 119.087 341.895 118.539 341.233 118.158C340.577 117.771 339.809 117.578 338.931 117.578C338.057 117.578 337.29 117.771 336.628 118.158C335.972 118.545 335.459 119.096 335.09 119.811C334.726 120.525 334.545 121.375 334.545 122.359V122.377C334.545 123.367 334.726 124.223 335.09 124.943C335.453 125.658 335.963 126.212 336.619 126.604C337.281 126.991 338.055 127.185 338.939 127.185ZM338.948 125.585C338.45 125.585 338.016 125.459 337.647 125.207C337.278 124.955 336.991 124.592 336.786 124.117C336.587 123.637 336.487 123.057 336.487 122.377V122.359C336.487 121.686 336.59 121.111 336.795 120.637C337 120.162 337.284 119.799 337.647 119.547C338.016 119.295 338.444 119.169 338.931 119.169C339.423 119.169 339.853 119.295 340.223 119.547C340.592 119.793 340.876 120.156 341.075 120.637C341.274 121.111 341.374 121.686 341.374 122.359V122.377C341.374 123.057 341.274 123.637 341.075 124.117C340.876 124.592 340.595 124.955 340.231 125.207C339.868 125.459 339.44 125.585 338.948 125.585ZM346.063 127H347.979V121.173C347.979 120.763 348.064 120.394 348.234 120.065C348.403 119.731 348.638 119.468 348.937 119.274C349.241 119.075 349.581 118.976 349.956 118.976C350.513 118.976 350.955 119.137 351.283 119.459C351.611 119.775 351.776 120.206 351.776 120.751V127H353.674V121.023C353.674 120.637 353.756 120.291 353.92 119.986C354.084 119.676 354.316 119.43 354.614 119.248C354.913 119.066 355.262 118.976 355.66 118.976C356.264 118.976 356.718 119.143 357.023 119.477C357.327 119.805 357.48 120.288 357.48 120.927V127H359.387V120.47C359.387 119.819 359.264 119.263 359.018 118.8C358.777 118.331 358.429 117.971 357.972 117.719C357.521 117.467 356.976 117.341 356.337 117.341C355.898 117.341 355.487 117.414 355.107 117.561C354.726 117.701 354.392 117.9 354.105 118.158C353.823 118.416 353.601 118.721 353.437 119.072H353.314C353.179 118.721 352.988 118.416 352.742 118.158C352.496 117.895 352.2 117.692 351.855 117.552C351.509 117.411 351.119 117.341 350.686 117.341C350.065 117.341 349.528 117.487 349.077 117.78C348.632 118.067 348.307 118.469 348.102 118.984H347.979V117.525H346.063V127ZM365.649 127.185C366.211 127.185 366.721 127.108 367.178 126.956C367.635 126.804 368.031 126.596 368.365 126.332C368.705 126.062 368.98 125.761 369.191 125.427C369.402 125.093 369.545 124.744 369.622 124.381L369.639 124.284H367.829L367.802 124.354C367.726 124.589 367.591 124.803 367.398 124.996C367.21 125.184 366.973 125.336 366.686 125.453C366.399 125.564 366.068 125.62 365.693 125.62C365.183 125.62 364.741 125.509 364.366 125.286C363.991 125.058 363.701 124.732 363.496 124.311C363.296 123.883 363.197 123.37 363.197 122.772V122.034C363.197 121.407 363.299 120.88 363.504 120.452C363.709 120.019 363.991 119.69 364.348 119.468C364.706 119.245 365.11 119.134 365.561 119.134C366.018 119.134 366.419 119.239 366.765 119.45C367.117 119.661 367.389 119.983 367.582 120.417C367.782 120.845 367.881 121.384 367.881 122.034V122.772L368.822 121.516H362.23V122.86H369.745V122.219C369.745 121.293 369.575 120.481 369.235 119.784C368.895 119.081 368.412 118.539 367.785 118.158C367.164 117.771 366.419 117.578 365.552 117.578C364.691 117.578 363.941 117.78 363.302 118.185C362.664 118.583 362.168 119.146 361.817 119.872C361.465 120.593 361.29 121.434 361.29 122.395V122.403C361.29 123.376 361.462 124.223 361.808 124.943C362.16 125.658 362.661 126.212 363.311 126.604C363.967 126.991 364.747 127.185 365.649 127.185ZM376.464 127.185C377.249 127.185 377.923 127.05 378.485 126.78C379.054 126.505 379.508 126.13 379.847 125.655C380.187 125.181 380.41 124.633 380.515 124.012L380.524 123.941H378.696L378.679 123.994C378.538 124.504 378.283 124.896 377.914 125.172C377.545 125.447 377.061 125.585 376.464 125.585C375.948 125.585 375.503 125.453 375.128 125.189C374.753 124.92 374.463 124.536 374.258 124.038C374.053 123.54 373.95 122.942 373.95 122.245V122.228C373.95 121.548 374.05 120.962 374.249 120.47C374.454 119.978 374.744 119.6 375.119 119.336C375.494 119.072 375.942 118.94 376.464 118.94C377.091 118.94 377.592 119.099 377.967 119.415C378.342 119.726 378.582 120.115 378.687 120.584L378.696 120.619H380.533L380.524 120.566C380.448 119.957 380.24 119.409 379.9 118.923C379.56 118.437 379.1 118.053 378.52 117.771C377.946 117.484 377.258 117.341 376.455 117.341C375.541 117.341 374.75 117.54 374.082 117.938C373.414 118.331 372.898 118.894 372.535 119.626C372.178 120.358 371.999 121.226 371.999 122.228V122.245C371.999 123.259 372.178 124.135 372.535 124.873C372.898 125.611 373.414 126.183 374.082 126.587C374.75 126.985 375.544 127.185 376.464 127.185ZM376.182 131.28C376.61 131.28 377.003 131.216 377.36 131.087C377.718 130.958 378.005 130.762 378.221 130.498C378.438 130.234 378.547 129.897 378.547 129.487V129.47C378.547 128.983 378.38 128.597 378.046 128.31C377.718 128.022 377.284 127.87 376.745 127.853L377.334 127V126.798H376.13L375.286 128.037V128.846H375.629C376.039 128.846 376.349 128.893 376.56 128.986C376.771 129.086 376.877 129.262 376.877 129.514V129.531C376.877 129.766 376.768 129.927 376.552 130.015C376.335 130.103 376.097 130.146 375.84 130.146C375.605 130.146 375.391 130.132 375.198 130.103C375.005 130.073 374.867 130.047 374.785 130.023V131.104C374.984 131.157 375.201 131.198 375.435 131.228C375.676 131.263 375.925 131.28 376.182 131.28ZM385.318 127.167C385.74 127.167 386.13 127.105 386.487 126.982C386.845 126.859 387.164 126.684 387.445 126.455C387.727 126.221 387.961 125.942 388.149 125.62H388.272V127H390.17V120.505C390.17 119.849 390.024 119.286 389.731 118.817C389.438 118.343 389.01 117.979 388.447 117.728C387.891 117.47 387.217 117.341 386.426 117.341C385.693 117.341 385.049 117.455 384.492 117.684C383.942 117.906 383.496 118.217 383.156 118.615C382.822 119.014 382.62 119.474 382.55 119.995L382.541 120.074H384.369L384.387 120.03C384.492 119.685 384.712 119.415 385.046 119.222C385.38 119.022 385.817 118.923 386.356 118.923C386.983 118.923 387.457 119.063 387.779 119.345C388.108 119.626 388.272 120.024 388.272 120.54V123.484C388.272 123.895 388.166 124.261 387.955 124.583C387.744 124.905 387.454 125.163 387.085 125.356C386.716 125.544 386.3 125.638 385.837 125.638C385.321 125.638 384.9 125.518 384.571 125.277C384.243 125.031 384.079 124.691 384.079 124.258V124.24C384.079 123.824 384.234 123.496 384.545 123.256C384.856 123.016 385.327 122.878 385.96 122.843L389.221 122.641V121.296L385.705 121.507C384.58 121.571 383.71 121.844 383.095 122.324C382.48 122.805 382.172 123.467 382.172 124.311V124.328C382.172 124.902 382.307 125.403 382.576 125.831C382.852 126.253 383.224 126.581 383.693 126.815C384.167 127.05 384.709 127.167 385.318 127.167ZM400.268 127.167C400.69 127.167 401.08 127.105 401.437 126.982C401.795 126.859 402.114 126.684 402.395 126.455C402.677 126.221 402.911 125.942 403.098 125.62H403.221V127H405.12V120.505C405.12 119.849 404.973 119.286 404.68 118.817C404.387 118.343 403.96 117.979 403.397 117.728C402.841 117.47 402.167 117.341 401.376 117.341C400.643 117.341 399.999 117.455 399.442 117.684C398.891 117.906 398.446 118.217 398.106 118.615C397.772 119.014 397.57 119.474 397.5 119.995L397.491 120.074H399.319L399.337 120.03C399.442 119.685 399.662 119.415 399.996 119.222C400.33 119.022 400.766 118.923 401.305 118.923C401.932 118.923 402.407 119.063 402.729 119.345C403.057 119.626 403.221 120.024 403.221 120.54V123.484C403.221 123.895 403.116 124.261 402.905 124.583C402.694 124.905 402.404 125.163 402.035 125.356C401.666 125.544 401.25 125.638 400.787 125.638C400.271 125.638 399.849 125.518 399.521 125.277C399.193 125.031 399.029 124.691 399.029 124.258V124.24C399.029 123.824 399.184 123.496 399.495 123.256C399.805 123.016 400.277 122.878 400.91 122.843L404.171 122.641V121.296L400.655 121.507C399.53 121.571 398.66 121.844 398.045 122.324C397.429 122.805 397.122 123.467 397.122 124.311V124.328C397.122 124.902 397.257 125.403 397.526 125.831C397.802 126.253 398.174 126.581 398.642 126.815C399.117 127.05 399.659 127.167 400.268 127.167ZM414.142 130.129H416.058V117.613H414.142V119.195H414.071C413.884 118.838 413.644 118.53 413.351 118.272C413.064 118.009 412.733 117.807 412.358 117.666C411.988 117.52 411.587 117.446 411.153 117.446C410.357 117.446 409.665 117.646 409.079 118.044C408.493 118.437 408.036 118.996 407.708 119.723C407.386 120.443 407.225 121.302 407.225 122.298V122.307C407.225 123.297 407.386 124.155 407.708 124.882C408.03 125.608 408.484 126.171 409.07 126.569C409.656 126.968 410.342 127.167 411.127 127.167C411.578 127.167 411.991 127.1 412.366 126.965C412.747 126.83 413.081 126.64 413.368 126.394C413.655 126.147 413.884 125.854 414.054 125.515H414.142V130.129ZM411.672 125.532C411.156 125.532 410.711 125.403 410.336 125.146C409.967 124.882 409.68 124.51 409.475 124.029C409.275 123.543 409.176 122.969 409.176 122.307V122.298C409.176 121.63 409.275 121.059 409.475 120.584C409.674 120.104 409.961 119.734 410.336 119.477C410.717 119.213 411.162 119.081 411.672 119.081C412.176 119.081 412.612 119.213 412.982 119.477C413.357 119.74 413.647 120.112 413.852 120.593C414.063 121.073 414.168 121.642 414.168 122.298V122.307C414.168 122.963 414.063 123.534 413.852 124.021C413.647 124.501 413.357 124.873 412.982 125.137C412.612 125.4 412.176 125.532 411.672 125.532ZM422.109 127.185C422.806 127.185 423.392 127.041 423.867 126.754C424.341 126.467 424.696 126.071 424.93 125.567H425.053V127H426.96V117.525H425.053V123.08C425.053 123.578 424.962 124.012 424.781 124.381C424.605 124.75 424.344 125.037 423.998 125.242C423.659 125.441 423.243 125.541 422.75 125.541C422.059 125.541 421.555 125.348 421.239 124.961C420.928 124.574 420.773 123.997 420.773 123.229V117.525H418.866V123.66C418.866 124.398 418.986 125.031 419.226 125.559C419.472 126.086 419.838 126.49 420.325 126.771C420.811 127.047 421.406 127.185 422.109 127.185ZM429.724 127H431.632V117.525H429.724V127ZM430.682 115.891C431.01 115.891 431.289 115.776 431.517 115.548C431.746 115.313 431.86 115.038 431.86 114.722C431.86 114.394 431.746 114.118 431.517 113.896C431.289 113.667 431.01 113.553 430.682 113.553C430.36 113.553 430.082 113.667 429.847 113.896C429.619 114.118 429.505 114.394 429.505 114.722C429.505 115.038 429.619 115.313 429.847 115.548C430.082 115.776 430.36 115.891 430.682 115.891ZM435.107 122.79H436.865L437.032 114.309H434.932L435.107 122.79ZM435.986 127.167C436.379 127.167 436.695 127.05 436.936 126.815C437.176 126.581 437.296 126.276 437.296 125.901C437.296 125.521 437.176 125.213 436.936 124.979C436.695 124.738 436.379 124.618 435.986 124.618C435.6 124.618 435.283 124.738 435.037 124.979C434.797 125.213 434.677 125.521 434.677 125.901C434.677 126.276 434.797 126.581 435.037 126.815C435.283 127.05 435.6 127.167 435.986 127.167Z" fill="#DCA007"/>
</svg>
