<svg width="257" height="36" viewBox="0 0 257 36" fill="none" xmlns="http://www.w3.org/2000/svg">
<path d="M16.5781 35.625C19.0781 35.625 21.3281 35.1562 23.3281 34.2188C25.3281 33.2812 26.9688 31.9688 28.25 30.2812C29.5469 28.5781 30.3672 26.6016 30.7109 24.3516L30.7578 24.1172H25.5312L25.4609 24.3516C25.0547 25.7734 24.4375 26.9766 23.6094 27.9609C22.7812 28.9453 21.7734 29.6953 20.5859 30.2109C19.4141 30.7109 18.0781 30.9609 16.5781 30.9609C14.5 30.9609 12.6875 30.4375 11.1406 29.3906C9.59375 28.3438 8.39844 26.8594 7.55469 24.9375C6.71094 23 6.28906 20.7344 6.28906 18.1406V18.1172C6.28906 15.5078 6.71094 13.25 7.55469 11.3438C8.39844 9.4375 9.58594 7.96094 11.1172 6.91406C12.6641 5.86719 14.4844 5.34375 16.5781 5.34375C18.1094 5.34375 19.4609 5.60156 20.6328 6.11719C21.8203 6.61719 22.8125 7.34375 23.6094 8.29688C24.4219 9.25 25.0078 10.3906 25.3672 11.7188L25.5078 12.1875H30.7344L30.7109 11.9531C30.3672 9.71875 29.5469 7.75781 28.25 6.07031C26.9531 4.38281 25.3047 3.0625 23.3047 2.10938C21.3047 1.15625 19.0625 0.679688 16.5781 0.679688C13.375 0.679688 10.6016 1.39062 8.25781 2.8125C5.91406 4.21875 4.10156 6.22656 2.82031 8.83594C1.53906 11.4453 0.898438 14.5391 0.898438 18.1172V18.1406C0.898438 21.7188 1.53906 24.8203 2.82031 27.4453C4.10156 30.0547 5.91406 32.0703 8.25781 33.4922C10.6172 34.9141 13.3906 35.625 16.5781 35.625ZM46.0269 35.5547C48.3706 35.5547 50.4175 35.0391 52.1675 34.0078C53.9175 32.9609 55.2769 31.4844 56.2456 29.5781C57.23 27.6719 57.7222 25.3906 57.7222 22.7344V22.6875C57.7222 20.0469 57.23 17.7734 56.2456 15.8672C55.2769 13.9609 53.9097 12.5 52.1441 11.4844C50.3941 10.4531 48.3472 9.9375 46.0034 9.9375C43.6753 9.9375 41.6284 10.4531 39.8628 11.4844C38.1128 12.5156 36.7456 13.9844 35.7612 15.8906C34.7925 17.7969 34.3081 20.0625 34.3081 22.6875V22.7344C34.3081 25.375 34.7925 27.6562 35.7612 29.5781C36.73 31.4844 38.0894 32.9609 39.8394 34.0078C41.605 35.0391 43.6675 35.5547 46.0269 35.5547ZM46.0503 31.2891C44.7222 31.2891 43.5659 30.9531 42.5816 30.2812C41.5972 29.6094 40.8316 28.6406 40.2847 27.375C39.7534 26.0938 39.4878 24.5469 39.4878 22.7344V22.6875C39.4878 20.8906 39.7612 19.3594 40.3081 18.0938C40.855 16.8281 41.6128 15.8594 42.5816 15.1875C43.5659 14.5156 44.7066 14.1797 46.0034 14.1797C47.3159 14.1797 48.4644 14.5156 49.4487 15.1875C50.4331 15.8438 51.1909 16.8125 51.7222 18.0938C52.2534 19.3594 52.5191 20.8906 52.5191 22.6875V22.7344C52.5191 24.5469 52.2534 26.0938 51.7222 27.375C51.1909 28.6406 50.4409 29.6094 49.4722 30.2812C48.5034 30.9531 47.3628 31.2891 46.0503 31.2891ZM71.3506 35.5547C73.1162 35.5547 74.6631 35.1406 75.9912 34.3125C77.3194 33.4688 78.3506 32.3281 79.085 30.8906H79.1787V35.0625H84.2881V1.24219H79.1787V14.6016H79.085C78.335 13.1484 77.2803 12.0078 75.9209 11.1797C74.5772 10.3516 73.0381 9.9375 71.3037 9.9375C69.2412 9.9375 67.4366 10.4609 65.8897 11.5078C64.3584 12.5391 63.1631 14.0078 62.3037 15.9141C61.46 17.8203 61.0381 20.0859 61.0381 22.7109V22.7344C61.0381 25.3594 61.46 27.6328 62.3037 29.5547C63.1475 31.4609 64.3428 32.9375 65.8897 33.9844C67.4366 35.0312 69.2569 35.5547 71.3506 35.5547ZM72.6866 31.1719C71.3584 31.1719 70.21 30.8359 69.2412 30.1641C68.2725 29.4922 67.5225 28.5234 66.9912 27.2578C66.4756 25.9766 66.2178 24.4688 66.2178 22.7344V22.7109C66.2178 20.9766 66.4756 19.4844 66.9912 18.2344C67.5225 16.9688 68.2725 16 69.2412 15.3281C70.21 14.6406 71.3584 14.2969 72.6866 14.2969C73.9678 14.2969 75.0928 14.6484 76.0616 15.3516C77.0303 16.0391 77.7959 17.0156 78.3584 18.2812C78.9209 19.5312 79.2022 21.0078 79.2022 22.7109V22.7344C79.2022 24.4375 78.9209 25.9219 78.3584 27.1875C77.8116 28.4531 77.0459 29.4375 76.0616 30.1406C75.0928 30.8281 73.9678 31.1719 72.6866 31.1719ZM100.471 35.5547C101.971 35.5547 103.331 35.3516 104.549 34.9453C105.768 34.5391 106.823 33.9844 107.713 33.2812C108.62 32.5625 109.354 31.7578 109.917 30.8672C110.479 29.9766 110.862 29.0469 111.065 28.0781L111.112 27.8203H106.284L106.213 28.0078C106.01 28.6328 105.651 29.2031 105.135 29.7188C104.635 30.2188 104.003 30.625 103.237 30.9375C102.471 31.2344 101.588 31.3828 100.588 31.3828C99.2291 31.3828 98.0494 31.0859 97.0494 30.4922C96.0494 29.8828 95.2759 29.0156 94.7291 27.8906C94.1978 26.75 93.9322 25.3828 93.9322 23.7891V21.8203C93.9322 20.1484 94.2056 18.7422 94.7525 17.6016C95.2994 16.4453 96.0494 15.5703 97.0025 14.9766C97.9556 14.3828 99.0338 14.0859 100.237 14.0859C101.456 14.0859 102.526 14.3672 103.448 14.9297C104.385 15.4922 105.112 16.3516 105.628 17.5078C106.159 18.6484 106.424 20.0859 106.424 21.8203V23.7891L108.932 20.4375H91.3541V24.0234H111.393V22.3125C111.393 19.8438 110.94 17.6797 110.034 15.8203C109.128 13.9453 107.838 12.5 106.167 11.4844C104.51 10.4531 102.526 9.9375 100.213 9.9375C97.9166 9.9375 95.9166 10.4766 94.2134 11.5547C92.5103 12.6172 91.19 14.1172 90.2525 16.0547C89.315 17.9766 88.8463 20.2188 88.8463 22.7812V22.8047C88.8463 25.3984 89.3072 27.6562 90.2291 29.5781C91.1666 31.4844 92.5025 32.9609 94.2369 34.0078C95.9869 35.0391 98.065 35.5547 100.471 35.5547ZM127.928 35.625C130.6 35.625 132.897 35.2188 134.818 34.4062C136.756 33.5781 138.24 32.4141 139.272 30.9141C140.318 29.3984 140.842 27.6094 140.842 25.5469V25.5234C140.842 22.9141 140.045 20.8594 138.451 19.3594C136.873 17.8438 134.334 16.7188 130.834 15.9844L127.154 15.1875C125.045 14.7344 123.49 14.1094 122.49 13.3125C121.49 12.5156 120.99 11.4844 120.99 10.2188V10.1953C120.99 9.19531 121.272 8.32812 121.834 7.59375C122.397 6.85938 123.193 6.28906 124.225 5.88281C125.256 5.46094 126.467 5.25 127.857 5.25C129.201 5.25 130.381 5.45312 131.397 5.85938C132.412 6.25 133.232 6.82031 133.857 7.57031C134.498 8.32031 134.889 9.22656 135.029 10.2891L135.076 10.5938H140.209L140.186 10.2188C140.061 8.3125 139.475 6.64844 138.428 5.22656C137.381 3.78906 135.959 2.67188 134.162 1.875C132.365 1.07812 130.295 0.679688 127.951 0.679688C125.561 0.679688 123.443 1.09375 121.6 1.92188C119.756 2.73438 118.311 3.875 117.264 5.34375C116.217 6.79688 115.686 8.48438 115.67 10.4062V10.4297C115.67 12.9297 116.482 14.9609 118.107 16.5234C119.732 18.0703 122.201 19.1953 125.514 19.8984L129.193 20.6719C131.443 21.1562 133.053 21.8047 134.022 22.6172C135.006 23.4141 135.498 24.4922 135.498 25.8516V25.875C135.498 26.9219 135.193 27.8359 134.584 28.6172C133.99 29.3984 133.147 30 132.053 30.4219C130.959 30.8438 129.654 31.0547 128.139 31.0547C126.639 31.0547 125.311 30.8516 124.154 30.4453C122.998 30.0391 122.061 29.4609 121.342 28.7109C120.639 27.9453 120.209 27.0469 120.053 26.0156L120.006 25.7109H114.873L114.897 26.0625C115.037 28.0469 115.662 29.7578 116.772 31.1953C117.881 32.6172 119.381 33.7109 121.272 34.4766C123.178 35.2422 125.397 35.625 127.928 35.625ZM156.017 35.5547C158.002 35.5547 159.752 35.1719 161.267 34.4062C162.798 33.625 164.025 32.5781 164.947 31.2656C165.884 29.9375 166.447 28.4531 166.634 26.8125V26.6484H161.759L161.736 26.8359C161.423 28.1641 160.783 29.2422 159.814 30.0703C158.861 30.8828 157.603 31.2891 156.041 31.2891C154.728 31.2891 153.58 30.9531 152.595 30.2812C151.627 29.6094 150.869 28.6406 150.322 27.375C149.775 26.0938 149.502 24.5547 149.502 22.7578V22.7344C149.502 20.9844 149.767 19.4688 150.298 18.1875C150.845 16.9062 151.603 15.9219 152.572 15.2344C153.556 14.5312 154.697 14.1797 155.994 14.1797C157.65 14.1797 158.947 14.625 159.884 15.5156C160.837 16.3906 161.447 17.4297 161.712 18.6328L161.759 18.8438H166.611L166.587 18.6562C166.447 17.1094 165.939 15.6719 165.064 14.3438C164.189 13.0156 162.978 11.9531 161.431 11.1562C159.9 10.3438 158.08 9.9375 155.97 9.9375C153.627 9.9375 151.58 10.4609 149.83 11.5078C148.08 12.5391 146.72 14.0078 145.752 15.9141C144.798 17.8203 144.322 20.0781 144.322 22.6875V22.7109C144.322 25.3359 144.791 27.6094 145.728 29.5312C146.681 31.4531 148.033 32.9375 149.783 33.9844C151.548 35.0312 153.627 35.5547 156.017 35.5547ZM170.935 35.0625H176.021V20.7891C176.021 19.4922 176.263 18.3594 176.747 17.3906C177.232 16.4219 177.903 15.6641 178.763 15.1172C179.638 14.5703 180.653 14.2969 181.81 14.2969C183.591 14.2969 184.974 14.8672 185.958 16.0078C186.943 17.1484 187.435 18.7422 187.435 20.7891V35.0625H192.521V19.8281C192.521 17.8438 192.153 16.1094 191.419 14.625C190.7 13.1406 189.685 11.9922 188.372 11.1797C187.075 10.3516 185.544 9.9375 183.778 9.9375C181.935 9.9375 180.357 10.3359 179.044 11.1328C177.747 11.9141 176.778 13.0234 176.138 14.4609H176.021V1.24219H170.935V35.0625ZM208.516 35.5547C210.86 35.5547 212.907 35.0391 214.657 34.0078C216.407 32.9609 217.766 31.4844 218.735 29.5781C219.719 27.6719 220.212 25.3906 220.212 22.7344V22.6875C220.212 20.0469 219.719 17.7734 218.735 15.8672C217.766 13.9609 216.399 12.5 214.633 11.4844C212.883 10.4531 210.837 9.9375 208.493 9.9375C206.165 9.9375 204.118 10.4531 202.352 11.4844C200.602 12.5156 199.235 13.9844 198.251 15.8906C197.282 17.7969 196.798 20.0625 196.798 22.6875V22.7344C196.798 25.375 197.282 27.6562 198.251 29.5781C199.219 31.4844 200.579 32.9609 202.329 34.0078C204.094 35.0391 206.157 35.5547 208.516 35.5547ZM208.54 31.2891C207.212 31.2891 206.055 30.9531 205.071 30.2812C204.087 29.6094 203.321 28.6406 202.774 27.375C202.243 26.0938 201.977 24.5469 201.977 22.7344V22.6875C201.977 20.8906 202.251 19.3594 202.798 18.0938C203.344 16.8281 204.102 15.8594 205.071 15.1875C206.055 14.5156 207.196 14.1797 208.493 14.1797C209.805 14.1797 210.954 14.5156 211.938 15.1875C212.923 15.8438 213.68 16.8125 214.212 18.0938C214.743 19.3594 215.008 20.8906 215.008 22.6875V22.7344C215.008 24.5469 214.743 26.0938 214.212 27.375C213.68 28.6406 212.93 29.6094 211.962 30.2812C210.993 30.9531 209.852 31.2891 208.54 31.2891ZM235.246 35.5547C237.59 35.5547 239.637 35.0391 241.387 34.0078C243.137 32.9609 244.496 31.4844 245.465 29.5781C246.449 27.6719 246.942 25.3906 246.942 22.7344V22.6875C246.942 20.0469 246.449 17.7734 245.465 15.8672C244.496 13.9609 243.129 12.5 241.363 11.4844C239.613 10.4531 237.567 9.9375 235.223 9.9375C232.895 9.9375 230.848 10.4531 229.082 11.4844C227.332 12.5156 225.965 13.9844 224.981 15.8906C224.012 17.7969 223.527 20.0625 223.527 22.6875V22.7344C223.527 25.375 224.012 27.6562 224.981 29.5781C225.949 31.4844 227.309 32.9609 229.059 34.0078C230.824 35.0391 232.887 35.5547 235.246 35.5547ZM235.27 31.2891C233.942 31.2891 232.785 30.9531 231.801 30.2812C230.817 29.6094 230.051 28.6406 229.504 27.375C228.973 26.0938 228.707 24.5469 228.707 22.7344V22.6875C228.707 20.8906 228.981 19.3594 229.527 18.0938C230.074 16.8281 230.832 15.8594 231.801 15.1875C232.785 14.5156 233.926 14.1797 235.223 14.1797C236.535 14.1797 237.684 14.5156 238.668 15.1875C239.652 15.8438 240.41 16.8125 240.942 18.0938C241.473 19.3594 241.738 20.8906 241.738 22.6875V22.7344C241.738 24.5469 241.473 26.0938 240.942 27.375C240.41 28.6406 239.66 29.6094 238.692 30.2812C237.723 30.9531 236.582 31.2891 235.27 31.2891ZM251.547 35.0625H256.633V1.24219H251.547V35.0625Z" fill="#DCA007"/>
</svg>
